<svg xmlns="http://www.w3.org/2000/svg" version="1.1" xmlns:xlink="http://www.w3.org/1999/xlink" xmlns:svgjs="http://svgjs.dev/svgjs" width="1500" height="1500" viewBox="0 0 1500 1500"><rect width="1500" height="1500" fill="#000000"></rect><g transform="matrix(0.6666666666666666,0,0,0.6666666666666666,249.39393939393938,438.58569500674764)"><svg viewBox="0 0 396 247" data-background-color="#561f01" preserveAspectRatio="xMidYMid meet" height="935" width="1500" xmlns="http://www.w3.org/2000/svg" xmlns:xlink="http://www.w3.org/1999/xlink"><g id="tight-bounds" transform="matrix(1,0,0,1,0.2400000000000091,-0.09999999999999432)"><svg viewBox="0 0 395.52 247.2" height="247.2" width="395.52"><g><svg></svg></g><g><svg viewBox="0 0 395.52 247.2" height="247.2" width="395.52"><g transform="matrix(1,0,0,1,75.54432000000001,80.9763308353779)"><svg viewBox="0 0 244.43135999999996 85.24733832924419" height="85.24733832924419" width="244.43135999999996"><g><svg viewBox="0 0 244.43136 85.2473383292442" height="85.24733832924419" width="244.43135999999996"><g transform="matrix(1,0,0,1,0,52.68627504107221)"><svg viewBox="0 0 244.43136 32.561063288172" height="32.561063288172" width="244.43136"><g id="textblocktransform"><svg viewBox="0 0 244.43136 32.561063288172" height="32.561063288172" width="244.43136" id="textblock"><g><svg viewBox="0 0 244.43136 32.561063288172" height="32.561063288172" width="244.43136"><g transform="matrix(1,0,0,1,0,0)"><svg width="244.43136" viewBox="5.76 -41.94 402.071322425776 53.559999999999995" height="32.561063288172" data-palette-color="#ebe6c8"><path d="M5.76 0L5.76-37.35 27.22-37.35 27.22-33.74 9.91-33.74 9.91-19.07 24.93-19.07 24.93-15.48 9.91-15.48 9.91 0 5.76 0ZM33.66-14.45L33.66-14.45Q33.66-20 34.23-22.19 34.79-24.39 35.61-25.67 36.42-26.95 37.81-27.81L37.81-27.81Q40.6-29.54 46.04-29.54L46.04-29.54Q53.9-29.54 56.15-25.66L56.15-25.66Q57.49-23.32 57.69-19.04L57.69-19.04Q57.76-17.02 57.76-14.58 57.76-12.13 57.6-10.02 57.44-7.91 56.98-6.23 56.52-4.54 55.69-3.28 54.86-2.03 53.49-1.17L53.49-1.17Q50.8 0.49 45.65 0.49L45.65 0.49Q37.94 0.49 35.52-3.32L35.52-3.32Q34.03-5.69 33.79-9.96L33.79-9.96Q33.66-12.01 33.66-14.45ZM40.31-4.27Q41.18-3.61 42.51-3.28 43.85-2.95 46.15-2.95 48.46-2.95 50.03-3.61 51.61-4.27 52.4-5.73 53.2-7.18 53.4-9.5 53.61-11.82 53.61-14.89 53.61-17.97 53.43-20.02 53.24-22.07 52.51-23.41L52.51-23.41Q51.05-26.05 45.99-26.05L45.99-26.05Q40.65-26.05 39.04-23.41L39.04-23.41Q38.23-22.07 38.01-20 37.79-17.92 37.79-15.48 37.79-13.04 37.85-11.34 37.91-9.64 38.17-8.29 38.43-6.93 38.93-5.93 39.43-4.93 40.31-4.27ZM66.94-14.45L66.94-14.45Q66.94-20 67.5-22.19 68.06-24.39 68.88-25.67 69.7-26.95 71.09-27.81L71.09-27.81Q73.87-29.54 79.32-29.54L79.32-29.54Q87.18-29.54 89.42-25.66L89.42-25.66Q90.77-23.32 90.96-19.04L90.96-19.04Q91.04-17.02 91.04-14.58 91.04-12.13 90.88-10.02 90.72-7.91 90.25-6.23 89.79-4.54 88.96-3.28 88.13-2.03 86.76-1.17L86.76-1.17Q84.08 0.49 78.93 0.49L78.93 0.49Q71.21 0.49 68.79-3.32L68.79-3.32Q67.3-5.69 67.06-9.96L67.06-9.96Q66.94-12.01 66.94-14.45ZM73.58-4.27Q74.46-3.61 75.79-3.28 77.12-2.95 79.43-2.95 81.73-2.95 83.31-3.61 84.88-4.27 85.68-5.73 86.47-7.18 86.68-9.5 86.88-11.82 86.88-14.89 86.88-17.97 86.7-20.02 86.52-22.07 85.79-23.41L85.79-23.41Q84.32-26.05 79.27-26.05L79.27-26.05Q73.92-26.05 72.31-23.41L72.31-23.41Q71.5-22.07 71.28-20 71.06-17.92 71.06-15.48 71.06-13.04 71.13-11.34 71.19-9.64 71.44-8.29 71.7-6.93 72.2-5.93 72.7-4.93 73.58-4.27ZM120.52 0.1L119.94-3.25Q114.79 0.49 109.47 0.49L109.47 0.49Q103.58 0.49 101.63-3.83L101.63-3.83Q100.51-6.27 100.37-9 100.24-11.72 100.24-13.78 100.24-15.84 100.27-17.94 100.31-20.04 100.58-21.83 100.85-23.61 101.42-25.04 101.99-26.46 103.07-27.47L103.07-27.47Q105.29-29.54 110.41-29.54 115.52-29.54 119.65-27.76L119.65-27.76 119.65-41.55 123.7-41.94 123.7-13.35Q123.7-4.93 124.16-0.2L124.16-0.2 120.52 0.1ZM119.62-13.55L119.65-24.41Q115.25-25.88 111.15-25.88L111.15-25.88Q108.17-25.88 107.22-25.39 106.27-24.9 105.77-24.12 105.27-23.34 104.95-21.97L104.95-21.97Q104.39-19.41 104.39-13.53L104.39-13.53 104.39-12.99Q104.39-7.5 105.58-5.4L105.58-5.4Q106.88-3.17 110.39-3.17L110.39-3.17 110.76-3.17Q114.13-3.17 117.94-5.32L117.94-5.32Q118.99-5.91 119.74-6.49L119.74-6.49 119.74-6.54Q119.62-8.81 119.62-13.55L119.62-13.55ZM137.27-36.01L137.27-36.01Q135.63-36.01 135.17-36.47L135.17-36.47Q134.44-37.23 134.44-38.56 134.44-39.89 134.6-40.47 134.76-41.04 135.07-41.36L135.07-41.36Q135.66-41.94 136.87-41.94 138.08-41.94 138.6-41.82 139.13-41.7 139.47-41.36L139.47-41.36Q140.05-40.77 140.05-39.44 140.05-38.11 139.92-37.54 139.78-36.96 139.47-36.62L139.47-36.62Q138.86-36.01 137.27-36.01ZM135.34 0L135.29-29.05 139.3-29.05 139.3 0 135.34 0ZM172.59-5.03L173.79-1.54Q168.74 0.49 162.63 0.49L162.63 0.49Q159.09 0.49 156.63-0.24L156.63-0.24Q152.7-1.37 151.4-4.88L151.4-4.88Q150.21-8.18 150.21-14.65L150.21-14.65 150.21-15.89Q150.21-23.63 153.43-26.76L153.43-26.76Q156.34-29.54 163.12-29.54L163.12-29.54Q169.74-29.54 172.16-26.27L172.16-26.27Q173.33-24.68 173.71-22.42 174.08-20.17 174.08-18.12L174.08-18.12Q174.08-14.92 173.94-13.16L173.94-13.16Q170.5-13.01 167.76-13.01L167.76-13.01Q167.76-13.01 163.83-13.01L163.83-13.01Q157.68-13.01 154.36-13.55L154.36-13.55Q154.36-7.93 155.77-5.71L155.77-5.71Q157.51-3 162.68-3 167.86-3 172.59-5.03L172.59-5.03ZM154.36-16.41L169.96-16.41 169.96-18.75Q169.96-22.58 168.47-24.22L168.47-24.22Q166.81-26.05 162.73-26.05L162.73-26.05Q157.85-26.05 156.07-23.93L156.07-23.93Q154.36-21.9 154.36-16.41L154.36-16.41ZM197.13 0L197.13-37.13Q197.13-37.13 200.79-37.4L200.79-37.4Q206.28-37.84 209.55-37.84 212.82-37.84 214.78-37.59 216.73-37.33 218.21-36.71 219.68-36.08 220.72-35.01 221.76-33.94 222.42-32.28L222.42-32.28Q223.66-29.17 223.66-23.05L223.66-23.05 223.66-19.26Q223.66-12.01 222.59-8.25L222.59-8.25Q221.34-3.91 218.12-2L218.12-2Q214.8 0 208.38 0L208.38 0 197.13 0ZM217.85-31.42Q216.97-32.81 215.31-33.52 213.65-34.23 210.21-34.23 206.77-34.23 201.28-33.81L201.28-33.81 201.28-3.49 209.04-3.49Q213.58-3.49 215.78-4.98L215.78-4.98Q217.93-6.42 218.66-9.94L218.66-9.94Q219.29-12.82 219.29-19.26L219.29-19.26 219.29-23.07Q219.29-29.15 217.85-31.42L217.85-31.42ZM255.81-5.03L257.01-1.54Q251.96 0.49 245.85 0.49L245.85 0.49Q242.31 0.49 239.85-0.24L239.85-0.24Q235.92-1.37 234.62-4.88L234.62-4.88Q233.43-8.18 233.43-14.65L233.43-14.65 233.43-15.89Q233.43-23.63 236.65-26.76L236.65-26.76Q239.56-29.54 246.34-29.54L246.34-29.54Q252.96-29.54 255.38-26.27L255.38-26.27Q256.55-24.68 256.93-22.42 257.3-20.17 257.3-18.12L257.3-18.12Q257.3-14.92 257.16-13.16L257.16-13.16Q253.72-13.01 250.98-13.01L250.98-13.01Q250.98-13.01 247.05-13.01L247.05-13.01Q240.9-13.01 237.58-13.55L237.58-13.55Q237.58-7.93 238.99-5.71L238.99-5.71Q240.73-3 245.9-3 251.08-3 255.81-5.03L255.81-5.03ZM237.58-16.41L253.18-16.41 253.18-18.75Q253.18-22.58 251.69-24.22L251.69-24.22Q250.03-26.05 245.95-26.05L245.95-26.05Q241.07-26.05 239.29-23.93L239.29-23.93Q237.58-21.9 237.58-16.41L237.58-16.41ZM268.48 0L268.43-41.5 272.46-41.85 272.46 0 268.48 0ZM287.13-36.01L287.13-36.01Q285.5-36.01 285.03-36.47L285.03-36.47Q284.3-37.23 284.3-38.56 284.3-39.89 284.46-40.47 284.62-41.04 284.94-41.36L284.94-41.36Q285.52-41.94 286.73-41.94 287.94-41.94 288.46-41.82 288.99-41.7 289.33-41.36L289.33-41.36Q289.92-40.77 289.92-39.44 289.92-38.11 289.78-37.54 289.65-36.96 289.33-36.62L289.33-36.62Q288.72-36.01 287.13-36.01ZM285.2 0L285.16-29.05 289.16-29.05 289.16 0 285.2 0ZM319.6-27.05L319.6-27.05 319.99-29.05 323.51-29.05 323.53-0.54Q323.53 5.74 321.07 8.59L321.07 8.59Q318.43 11.62 312.16 11.62L312.16 11.62Q307.27 11.62 303.49 10.3L303.49 10.3Q302.54 9.99 302.02 9.72L302.02 9.72 303.29 6.27Q303.73 6.42 304.59 6.75 305.44 7.08 306.64 7.4L306.64 7.4Q309.66 8.2 312.19 8.2 314.72 8.2 316.09 7.69 317.45 7.18 318.21 6.1L318.21 6.1Q319.48 4.3 319.48-0.46L319.48-0.46 319.48-2.78Q314.82 0.49 309.62 0.49L309.62 0.49Q303.54 0.49 301.51-3.83L301.51-3.83Q300.34-6.27 300.14-10.01L300.14-10.01Q300.07-11.72 300.07-13.78 300.07-15.84 300.11-17.94 300.14-20.04 300.41-21.83 300.68-23.61 301.25-25.04 301.83-26.46 302.9-27.47L302.9-27.47Q305.12-29.54 309.75-29.54 314.38-29.54 319.6-27.05ZM319.48-6.08L319.48-23.68Q315.08-25.88 310.98-25.88L310.98-25.88Q308-25.88 307.05-25.39 306.1-24.9 305.6-24.12 305.1-23.34 304.78-21.97L304.78-21.97Q304.22-19.41 304.22-13.53L304.22-13.53 304.22-12.99Q304.22-7.57 305.56-5.4L305.56-5.4Q306.91-3.17 310.47-3.17L310.47-3.17 310.84-3.17Q314.21-3.17 317.72-5.03L317.72-5.03Q318.72-5.54 319.48-6.08L319.48-6.08ZM347.92-25.76L347.92-25.76Q343.06-25.76 338.28-22.95L338.28-22.95 338.28 0 334.22 0 334.22-41.55 338.18-41.94 338.18-26.05Q340.69-28.2 344.72-29.15L344.72-29.15Q346.33-29.54 348.53-29.54 350.73-29.54 352.39-29.04 354.05-28.54 355.02-27.44L355.02-27.44Q356.78-25.46 356.78-20.24L356.78-20.24 356.78 0 352.68 0 352.68-19.51Q352.68-23.02 352-24.04 351.31-25.05 350.37-25.4 349.43-25.76 347.92-25.76ZM380.41-4.57L381.8-1.39Q377.82 0.49 374.45 0.49L374.45 0.49Q368.35 0.49 367.52-4.74L367.52-4.74Q367.33-5.98 367.33-8.35L367.33-8.35 367.33-25.66 363.81-25.66 363.81-28.66 367.33-29.05 367.96-35.69 371.35-35.69 371.35-29.05 379.83-29.05 379.83-25.66 371.35-25.66 371.35-8.42Q371.35-5.42 371.79-4.59L371.79-4.59Q372.6-3.08 375.02-3.08 377.43-3.08 380.41-4.57L380.41-4.57ZM386.63-2.39L388.39-5.76Q393.42-2.95 398.5-2.95L398.5-2.95Q402.72-2.95 403.46-5.96L403.46-5.96Q403.7-6.98 403.7-8.46 403.7-9.94 403.36-10.75 403.02-11.57 402.21-11.98 401.41-12.38 400.07-12.57 398.74-12.77 396.69-13.12 394.64-13.48 392.93-13.92 391.22-14.36 390.03-15.19L390.03-15.19Q387.49-16.97 387.59-21.19L387.59-21.19 387.59-21.8Q387.59-26.25 390.52-28.13L390.52-28.13Q393.35-29.98 399.87-29.39L399.87-29.39Q404.31-28.98 406.95-27.86L406.95-27.86 405.8-24.17Q402.87-25.42 398.77-25.98L398.77-25.98Q397.5-26.15 396.39-26.15 395.28-26.15 394.37-25.98 393.47-25.81 392.86-25.34L392.86-25.34Q391.69-24.39 391.64-21.8L391.64-21.8Q391.57-18.75 393.35-17.92L393.35-17.92Q395.06-17.11 397.4-16.81 399.75-16.5 401.23-16.27 402.72-16.04 403.94-15.65 405.17-15.26 406.04-14.4L406.04-14.4Q407.88-12.67 407.83-8.37L407.83-8.37Q407.7-0.88 401.58 0.17L401.58 0.17Q399.72 0.49 397.87 0.49 396.01 0.49 394.46 0.26 392.91 0.02 391.49-0.39L391.49-0.39Q388.81-1.15 386.63-2.39L386.63-2.39Z" opacity="1" transform="matrix(1,0,0,1,0,0)" fill="#ffffff" class="wordmark-text-0" data-fill-palette-color="primary" id="text-0"></path></svg></g></svg></g></svg></g></svg></g><g transform="matrix(1,0,0,1,90.36724178295508,0)"><svg viewBox="0 0 63.69687643408985 44.99938946425371" height="44.99938946425371" width="63.69687643408985"><g><svg xmlns="http://www.w3.org/2000/svg" xmlns:xlink="http://www.w3.org/1999/xlink" version="1.1" x="8" y="0" viewBox="8.963513781583005 10.797092650037037 81.92052419839706 77.28752591615768" enable-background="new 0 0 100 100" xml:space="preserve" height="44.99938946425371" width="47.69687643408985" class="icon-icon-0" data-fill-palette-color="accent" id="icon-0"><g fill="#ccb54f" data-fill-palette-color="accent"><path d="M75.559 67.102c0 5.579-0.051 11.05 0.033 16.519 0.024 1.534-0.581 2.43-1.967 2.67-3.066 0.531-6.143 1.162-9.238 1.33-5.914 0.322-11.844 0.504-17.766 0.456-6.464-0.053-12.946-0.173-19.324-1.472-0.578-0.118-1.139-0.329-1.699-0.523-0.985-0.342-1.398-0.995-1.389-2.088 0.045-5.241-0.008-10.483 0.046-15.725 0.01-0.942-0.299-1.313-1.148-1.665C13.58 62.653 8.137 53.54 9.066 43.198c0.881-9.804 8.977-18.403 18.725-19.819 1.35-0.196 2.185-0.702 2.961-1.935 9.135-14.518 30.082-14.097 38.783 0.702 0.267 0.454 0.905 0.877 1.429 0.966 9.455 1.6 15.956 6.82 18.87 15.968 3.543 11.123-2.156 22.911-12.939 27.435C76.474 66.692 76.058 66.883 75.559 67.102zM28.61 81.888c14.262-1.528 28.368-1.516 42.569-0.005V69.427c-0.078-1.878 0-3.762 0-5.626 12.314-2.452 16.939-14.096 14.78-22.58-2.152-8.455-9.874-13.229-14.179-13.241 0.24 1.617 0.607 3.237 0.686 4.871 0.079 1.636-0.884 2.578-2.243 2.545-1.264-0.03-2.039-0.976-2.091-2.555-0.438-13.209-14.223-21.579-26.147-15.861-2.979 1.428-5.413 3.495-7.218 6.314 1.666 0.419 3.249 0.706 4.753 1.224 1.65 0.569 2.232 1.795 1.69 3.071-0.506 1.19-1.699 1.566-3.268 0.948-3.03-1.192-6.178-1.458-9.338-0.937-8.511 1.404-14.691 8.389-15.261 17.082-0.545 8.308 4.951 16.024 13.157 18.469 0.69 0.205 1.379 0.394 2.11 0.602 0 1.966 0.076 3.85 0 5.73V81.888z" fill="#ffffff" data-fill-palette-color="accent"></path></g><path d="M38.54 73.868c0 1.036-0.979 1.875-2.188 1.875l0 0c-1.208 0-2.188-0.839-2.188-1.875v-11.25c0-1.036 0.979-1.875 2.188-1.875l0 0c1.208 0 2.188 0.839 2.188 1.875V73.868z" fill="#ffffff" data-fill-palette-color="accent"></path><path d="M65.665 73.868c0 1.036-0.979 1.875-2.188 1.875l0 0c-1.208 0-2.188-0.839-2.188-1.875v-11.25c0-1.036 0.979-1.875 2.188-1.875l0 0c1.208 0 2.188 0.839 2.188 1.875V73.868z" fill="#ffffff" data-fill-palette-color="accent"></path><path d="M47.728 52.743c0-1.208 0.979-2.188 2.188-2.188l0 0c1.208 0 2.188 0.979 2.188 2.188V72.68c0 1.208-0.979 2.188-2.188 2.188l0 0c-1.208 0-2.188-0.979-2.188-2.188V52.743z" fill="#ffffff" data-fill-palette-color="accent"></path></svg></g></svg></g><g><rect width="90.36724178295505" height="2.9363902903446646" y="41.06299917390905" x="154.06411821704492" fill="#ffffff" data-fill-palette-color="accent"></rect><rect width="90.36724178295505" height="2.9363902903446646" y="41.06299917390905" x="2.842170943040401e-14" fill="#ffffff" data-fill-palette-color="accent"></rect><rect width="90.36724178295505" height="2.9363902903446646" y="35.19021859321972" x="154.06411821704492" fill="#ffffff" data-fill-palette-color="accent"></rect><rect width="90.36724178295505" height="2.9363902903446646" y="35.19021859321972" x="2.842170943040401e-14" fill="#ffffff" data-fill-palette-color="accent"></rect></g></svg></g></svg></g><g><path d="M86.38 73.289A122.216 122.216 0 0 1 309.14 73.289L306.204 73.289A119.279 119.279 0 0 0 89.316 73.289L86.38 73.289M86.38 173.911A122.216 122.216 0 0 0 309.14 173.911L306.204 173.911A119.279 119.279 0 0 1 89.316 173.911L86.38 173.911" fill="#ffffff" stroke="transparent" data-fill-palette-color="tertiary"></path></g></svg></g><defs></defs></svg><rect width="395.52" height="247.2" fill="none" stroke="none" visibility="hidden"></rect></g></svg></g></svg>